# xmcd
#
# Track frame offsets:
#       150
#       15033
#       26601
#       40468
#       49354
#       61959
#       74272
#       98806
#       110175
#       124299
#
# Disc length: 1902 seconds
#
# Revision: 0
# Processed by: cddbd v1.5.2PL0 Copyright (c) Steve Scherf et al.
# Submitted via: WaveLab 4.01
#
DISCID=89076c0a
DTITLE=Wyatt Rice and Rickie Simpkins - Acoustic Christmas
DYEAR=2001
DGENRE=Bluegrass
TTITLE0=God Rest Ye Merry Gentlemen
TTITLE1=Star of Bethleham
TTITLE2=Christmas Melody (Away In A Manger, Joy To The World,and First Noel.)
TTITLE3=O Holy Night
TTITLE4=Santa Claus Is Coming To Town
TTITLE5=It Came Upon A Midnight Clear
TTITLE6=What Child Is This
TTITLE7=Let It Snow
TTITLE8=Silent Night
TTITLE9=Auld Lang Syne
EXTD=
EXTT0=
EXTT1=
EXTT2=
EXTT3=
EXTT4=
EXTT5=
EXTT6=
EXTT7=
EXTT8=
EXTT9=
PLAYORDER=
